Coordinates
version=1
nRows=9
nColumns=24
inDegrees=yes

Units are S.I. units (second, meters, Newtons, ...)
Angles are in degrees.

endheader
time	pelvis_tilt	pelvis_list	pelvis_rotation	pelvis_tx	pelvis_ty	pelvis_tz	hip_flexion_r	hip_adduction_r	hip_rotation_r	knee_angle_r	ankle_angle_r	subtalar_angle_r	mtp_angle_r	hip_flexion_l	hip_adduction_l	hip_rotation_l	knee_angle_l	ankle_angle_l	subtalar_angle_l	mtp_angle_l	lumbar_extension	lumbar_bending	lumbar_rotation
      2.58500000	    -13.40809126	    -10.50912083	      1.05202817	     -2.32176411	     -0.02851058	      0.42583268	     26.82863705	     13.76927619	      3.93712053	    -17.81404743	     -2.71930084	     -2.29795240	      6.88305856	     19.77884974	    -10.41382015	      4.93309235	    -58.34635200	    -16.17563125	      3.36130577	     24.14228541	      9.38340078	     11.18548725	     -0.67845692
      2.59000000	    -13.31295833	    -10.41423601	      1.08483503	     -2.31469950	     -0.02732570	      0.42622337	     26.01666706	     13.72714004	      4.12399047	    -17.40175289	     -2.43017464	     -2.24760809	      6.87164690	     20.61548447	    -10.27676315	      4.95535185	    -58.79500300	    -15.46762988	      3.77621123	     24.54298421	      9.30982046	     11.05045786	     -0.49740916
      2.59500000	    -13.22735761	    -10.31911422	      1.10986686	     -2.30763327	     -0.02616127	      0.42663304	     25.20490855	     13.69163262	      4.34443583	    -16.97302917	     -2.18099943	     -2.26061154	      6.77897045	     21.44660207	    -10.13940446	      4.96855328	    -59.16298691	    -14.70001394	      4.24772299	     24.93888108	      9.24990435	     10.91321865	     -0.30972494
      2.60000000	    -13.14362709	    -10.22818964	      1.12064593	     -2.30055291	     -0.02501389	      0.42707105	     24.38201638	     13.66822102	      4.59956241	    -16.52534121	     -1.95558427	     -2.30311224	      6.60327205	     22.26076329	    -10.01132906	      4.96188703	    -59.45105269	    -13.89733706	      4.73697997	     25.30392272	      9.19509118	     10.78129276	     -0.10358754
      2.60500000	    -13.07088825	    -10.07070424	      1.10663063	     -2.29355299	     -0.02388272	      0.42753916	     23.58313862	     13.58366771	      4.87470412	    -16.10235419	     -1.72464537	     -2.33606570	      6.46224756	     23.05143715	     -9.80717097	      4.91870215	    -59.63845193	    -13.07858052	      5.16603746	     25.65041699	      9.13195545	     10.57930895	      0.11696823
      2.61000000	    -12.98461610	     -9.94754555	      1.08332842	     -2.28650088	     -0.02276266	      0.42803525	     22.74628829	     13.53773414	      5.18104853	    -15.63926316	     -1.52544732	     -2.39087676	      6.24467649	     23.81191095	     -9.65149370	      4.86058756	    -59.75526806	    -12.24191328	      5.60726307	     25.94886423	      9.06707463	     10.41735047	      0.36285603
      2.61500000	    -12.91566159	     -9.75253199	      1.03881328	     -2.27953417	     -0.02167166	      0.42857347	     21.94539025	     13.42132516	      5.47770459	    -15.20469573	     -1.31895752	     -2.43574233	      6.08236455	     24.55568225	     -9.41237775	      4.76979719	    -59.77233075	    -11.43109016	      5.92913790	     26.19435357	      9.00056139	     10.17512869	      0.61539338
      2.62000000	    -12.80610222	     -9.60157772	      0.97939159	     -2.27252526	     -0.02058436	      0.42914844	     21.07563767	     13.35760684	      5.83266237	    -14.73002557	     -1.13833289	     -2.50275051	      5.80125886	     25.23869996	     -9.23868362	      4.65357569	    -59.72917184	    -10.60137504	      6.22707897	     26.32134710	      8.89882477	      9.98563614	      0.87745214
      2.62500000	    -12.71968172	     -9.38982417	      0.90185753	     -2.26555684	     -0.01953020	      0.42973999	     20.24076281	     13.22712809	      6.17366170	    -14.27220675	     -0.94334287	     -2.52966675	      5.57965196	     25.91299997	     -8.99310236	      4.51310279	    -59.59171960	     -9.84302002	      6.39962011	     26.38128675	      8.81259221	      9.73244222	      1.17253059
